<svg width="360" height="360" viewBox="0 0 360 360" fill="none" xmlns="http://www.w3.org/2000/svg">
<path d="M87.1832 266.744C88.5272 265.592 90.4152 264.712 92.8472 264.104C94.2552 263.752 95.5512 263.576 96.7352 263.576C100.031 263.576 102.575 264.888 104.367 267.512C103.023 272.504 99.5832 275 94.0472 275C86.5272 275 82.7672 270.84 82.7672 262.52C82.7672 254.2 86.5272 250.04 94.0472 250.04C99.4232 250.04 102.863 252.088 104.367 256.184L100.623 257.384C99.6312 254.6 97.4392 253.208 94.0472 253.208C89.1512 253.208 86.7032 256.312 86.7032 262.52C86.7032 264.152 86.8632 265.56 87.1832 266.744ZM100.191 268.52C99.1032 267.4 97.7272 266.84 96.0632 266.84C95.2952 266.84 94.4792 266.952 93.6152 267.176C91.4392 267.72 89.9352 268.712 89.1032 270.152C90.3192 271.272 91.9672 271.832 94.0472 271.832C96.9592 271.832 99.0072 270.728 100.191 268.52ZM148.422 262.52C148.422 270.84 144.822 275 137.622 275C130.422 275 126.822 270.84 126.822 262.52C126.822 256.312 124.534 253.208 119.958 253.208C115.382 253.208 113.094 256.312 113.094 262.52C113.094 268.728 115.382 271.832 119.958 271.832V275C112.758 275 109.158 270.84 109.158 262.52C109.158 254.2 112.758 250.04 119.958 250.04C127.158 250.04 130.758 254.2 130.758 262.52C130.758 268.728 133.046 271.832 137.622 271.832C142.198 271.832 144.486 268.728 144.486 262.52C144.486 256.312 142.198 253.208 137.622 253.208V250.04C144.822 250.04 148.422 254.2 148.422 262.52ZM137.62 276.44C140.532 276.44 141.988 277.896 141.988 280.808C141.988 283.72 140.532 285.176 137.62 285.176C134.708 285.176 133.252 283.72 133.252 280.808C133.252 277.896 134.708 276.44 137.62 276.44ZM139.06 280.808C139.06 279.848 138.58 279.368 137.62 279.368C136.66 279.368 136.18 279.848 136.18 280.808C136.18 281.768 136.66 282.248 137.62 282.248C138.58 282.248 139.06 281.768 139.06 280.808ZM192.484 262.52C192.484 270.84 188.884 275 181.684 275C174.484 275 170.884 270.84 170.884 262.52C170.884 256.312 168.596 253.208 164.02 253.208C159.444 253.208 157.156 256.312 157.156 262.52C157.156 268.728 159.444 271.832 164.02 271.832V275C156.82 275 153.22 270.84 153.22 262.52C153.22 254.2 156.82 250.04 164.02 250.04C171.22 250.04 174.82 254.2 174.82 262.52C174.82 268.728 177.108 271.832 181.684 271.832C186.26 271.832 188.548 268.728 188.548 262.52C188.548 256.312 186.26 253.208 181.684 253.208V250.04C188.884 250.04 192.484 254.2 192.484 262.52ZM191.763 256.856L189.651 253.016C191.475 251.032 194.147 250.04 197.667 250.04C204.867 250.04 208.467 254.2 208.467 262.52C208.467 270.84 204.867 275 197.667 275V271.832C202.243 271.832 204.531 268.728 204.531 262.52C204.531 256.312 202.243 253.208 197.667 253.208C194.819 253.208 192.851 254.424 191.763 256.856ZM218.451 268.76C219.571 270.808 221.443 271.832 224.067 271.832C226.691 271.832 228.563 270.808 229.683 268.76C228.563 266.712 226.691 265.688 224.067 265.688C221.443 265.688 219.571 266.712 218.451 268.76ZM213.267 262.52C213.267 255.544 215.587 251.384 220.227 250.04L221.523 253.112C218.643 254.136 217.203 257.272 217.203 262.52C217.203 263.192 217.235 263.832 217.299 264.44C218.995 263.16 221.251 262.52 224.067 262.52C226.883 262.52 229.139 263.144 230.835 264.392C230.899 263.816 230.931 263.192 230.931 262.52C230.931 257.272 229.491 254.136 226.611 253.112L227.907 250.04C232.547 251.384 234.867 255.544 234.867 262.52C234.867 270.84 231.267 275 224.067 275C216.867 275 213.267 270.84 213.267 262.52ZM260.538 268.184C261.626 270.616 263.594 271.832 266.442 271.832C271.018 271.832 273.306 268.728 273.306 262.52C273.306 256.312 271.018 253.208 266.442 253.208V250.04C273.642 250.04 277.242 254.2 277.242 262.52C277.242 270.84 273.642 275 266.442 275C262.922 275 260.25 274.008 258.426 272.024C256.634 274.008 253.978 275 250.458 275C243.258 275 239.658 270.84 239.658 262.52C239.658 255.544 241.978 251.384 246.618 250.04L247.914 253.112C245.034 254.136 243.594 257.272 243.594 262.52C243.594 268.728 245.882 271.832 250.458 271.832C255.034 271.832 257.322 268.728 257.322 262.52C257.322 257.272 255.882 254.136 253.002 253.112L254.298 250.04C258.938 251.384 261.258 255.544 261.258 262.52C261.258 264.696 261.018 266.584 260.538 268.184ZM274.257 236.648C273.521 234.888 271.921 234.008 269.457 234.008C265.969 234.008 264.225 235.752 264.225 239.24C264.225 242.728 265.969 244.472 269.457 244.472V247.64C263.857 247.64 261.057 244.84 261.057 239.24C261.057 233.64 263.857 230.84 269.457 230.84C273.553 230.84 276.145 232.328 277.233 235.304L274.257 236.648Z" fill="#00A59C"/>
<path d="M212.136 89H148.864C142.338 89 137 94.3599 137 100.913V214.087C137 220.64 142.338 226 148.864 226H212.136C218.662 226 224 220.64 224 214.087V100.913C224 94.3599 218.662 89 212.136 89ZM180.5 220.047C177.951 220.047 175.888 217.968 175.888 215.415C175.888 212.856 177.951 210.784 180.5 210.784C183.049 210.784 185.112 212.856 185.112 215.415C185.112 217.968 183.042 220.047 180.5 220.047Z" fill="#205295"/>
<path d="M202.073 95H147.309C144.379 95 142 97.3988 142 100.352V201.648C142 204.601 144.379 207 147.309 207H213.691C216.621 207 219 204.601 219 201.648V111.859L202.073 95Z" fill="white"/>
<path d="M205.466 113.831C202.701 113.831 200.455 111.367 200.455 108.333V96.2987L216.234 113.831H205.466Z" fill="#D0D2D3"/>
<path d="M90 71.6352C90 70.7316 90.7316 70 91.6352 70H107.65C108.554 70 109.286 70.7316 109.286 71.6352V87.6505C109.286 88.547 108.554 89.2857 107.65 89.2857H91.6352C90.7316 89.2857 90 88.5542 90 87.6505V71.6352Z" fill="#205295"/>
<path d="M118.052 86.8162C118.052 86.2409 118.587 85.7792 119.244 85.7792H130.894C131.551 85.7792 132.078 86.2409 132.078 86.8162V97.015C132.078 97.5832 131.543 98.0519 130.894 98.0519H119.244C118.587 98.0519 118.052 97.5832 118.052 97.015V86.8162Z" fill="#00A59C"/>
<path d="M123.312 116.178C123.312 115.85 123.643 115.584 124.052 115.584H131.337C131.747 115.584 132.078 115.85 132.078 116.178V122.004C132.078 122.332 131.747 122.597 131.337 122.597H124.052C123.643 122.597 123.312 122.332 123.312 122.004V116.178Z" fill="#205295"/>
<path d="M104.026 98.7935C104.026 98.3808 104.355 98.0519 104.768 98.0519H112.05C112.463 98.0519 112.792 98.3878 112.792 98.7935V106.077C112.792 106.489 112.463 106.818 112.05 106.818H104.768C104.355 106.818 104.026 106.489 104.026 106.077V98.7935Z" fill="#00A59C"/>
<path d="M118.052 102.151C118.052 101.818 118.321 101.558 118.645 101.558H124.472C124.806 101.558 125.065 101.827 125.065 102.151V107.979C125.065 108.303 124.796 108.571 124.472 108.571H118.645C118.321 108.571 118.052 108.303 118.052 107.979V102.151Z" fill="#205295"/>
<path d="M180.422 175.961C194.462 175.961 205.844 164.579 205.844 150.539C205.844 136.499 194.462 125.117 180.422 125.117C166.382 125.117 155 136.499 155 150.539C155 164.579 166.382 175.961 180.422 175.961Z" fill="#00A59C"/>
<path d="M189.884 153.401L171.013 167.556C170.233 168.141 169.121 167.585 169.121 166.61V138.3C169.121 137.325 170.233 136.769 171.013 137.353L189.885 151.509C190.515 151.982 190.515 152.928 189.884 153.401Z" fill="#1BA7AD"/>
<path d="M192.021 151.264L173.15 165.419C172.37 166.004 171.257 165.448 171.257 164.473V136.162C171.257 135.188 172.37 134.632 173.15 135.216L192.021 149.372C192.652 149.845 192.652 150.791 192.021 151.264Z" fill="white"/>
</svg>
