<?xml version="1.0" encoding="UTF-8"?> <svg xmlns="http://www.w3.org/2000/svg" width="501" height="500" viewBox="0 0 501 500" fill="none"><path d="M295.05 37.0999L295.55 37.7999L293.35 39.8999L291.65 37.6999L294.05 35.1999L293.55 34.4999L291.15 36.9999L287.25 31.9999L289.55 28.9999L288.95 28.3999L286.65 31.2999L283.95 27.8999L286.25 24.8999L293.15 23.7999L298.75 29.1999V27.9999L293.45 22.9999L291.55 17.3999L290.65 17.4999L292.35 22.5999L285.45 23.5999L282.95 26.8999L280.35 23.5999L283.55 19.0999L282.55 19.7999C282.35 19.8999 282.05 20.0999 281.85 20.1999L279.85 22.9999L278.75 21.6999L277.85 21.9999L279.25 23.7999L276.65 27.3999L273.05 24.2999L272.95 24.4999C272.85 24.5999 272.85 24.5999 272.75 24.6999L272.55 24.9999L279.75 31.0999L275.25 36.8999L271.05 31.4999V32.7999L274.65 37.4999L272.15 40.7999V40.6999V40.7999L270.25 41.2999L270.05 42.6999L272.85 42.0999L275.65 38.4999L277.85 41.1999L275.15 44.1999L274.65 43.5999L274.85 44.4999L270.15 46.2999L269.65 45.3999L269.45 47.1999L269.85 47.0999L270.05 47.3999C270.75 48.4999 271.35 49.5999 272.15 50.6999L272.65 51.4999C272.85 51.8999 273.15 52.2999 273.35 52.5999L268.95 55.2999L268.85 56.0999L273.65 53.1999C274.25 54.0999 274.65 54.5999 275.05 55.2999L268.65 58.6999L268.55 60.2999L269.55 59.7999L270.75 62.4999L268.25 63.9999L268.15 64.8999L268.65 64.5999L269.35 66.7999L270.05 66.8999L269.25 64.1999L272.75 62.0999L273.85 64.7999L270.45 66.9999L271.55 67.0999L276.95 63.5999L278.35 65.8999L275.35 67.3999H276.75H276.85H277.55L277.45 67.0999L283.05 64.2999L283.35 64.5999L283.45 63.4999L283.35 63.3999C282.95 62.9999 282.55 62.5999 282.25 62.2999C281.85 61.7999 281.35 61.3999 280.95 60.9999L282.75 59.7999L283.75 60.8999L283.85 59.8999L283.35 59.2999L283.85 58.9999V58.1999L280.45 60.3999C280.15 60.0999 279.95 59.8999 279.65 59.5999C279.25 59.1999 278.85 58.7999 278.55 58.4999L283.35 55.5999L283.15 54.8999L280.55 56.3999L279.05 54.2999L281.45 52.9999L281.55 52.8999L281.65 52.7999L282.25 52.1999V52.0999C282.35 50.5999 283.65 49.3999 285.05 49.3999H285.15L286.65 47.8999L291.25 52.9999L289.25 54.6999L288.05 53.0999L288.45 54.2999C288.55 54.5999 288.65 54.8999 288.65 55.1999V55.2999V55.4999L288.85 55.9999L289.05 55.8999L291.15 58.7999L290.35 59.2999L290.75 59.4999C290.85 59.4999 290.85 59.5999 290.95 59.5999L291.05 59.6999L291.55 59.2999L293.25 61.6999L292.25 62.4999V62.6999C292.35 62.9999 292.45 63.2999 292.55 63.6999L292.65 63.9999L294.05 62.8999C294.35 63.2999 294.65 63.6999 294.95 63.9999C295.15 64.1999 295.25 64.3999 295.45 64.6999L295.95 65.2999V63.8999L295.65 63.4999C295.35 63.0999 295.05 62.6999 294.85 62.3999L295.95 61.5999V59.8999L294.05 61.1999L292.25 58.7999L292.15 58.5999L291.95 58.3999L289.85 55.4999L293.95 52.0999L295.95 55.4999V54.5999C295.95 54.3999 295.95 54.2999 295.95 54.0999V53.1999L295.65 53.3999L292.25 47.7999L296.45 44.9999L296.65 43.8999L296.55 43.7999C295.65 42.6999 294.85 41.5999 293.85 40.6999L296.05 38.4999L296.15 38.2999L296.25 38.1999L297.75 35.1999V35.0999C297.85 34.3999 297.95 33.7999 298.05 33.1999C298.05 33.0999 298.05 33.0999 298.05 32.9999C298.05 32.8999 298.05 32.8999 298.05 32.7999L298.15 31.5999L295.25 37.1999L295.05 37.0999ZM282.55 27.5999L280.45 30.3999L277.45 27.8999L279.95 24.3999L282.55 27.5999ZM273.05 57.8999L274.15 60.4999L271.25 62.1999L270.05 59.4999L273.05 57.8999ZM274.75 60.1999L273.65 57.5999L275.95 56.3999C276.55 57.1999 277.05 57.7999 277.65 58.4999L274.75 60.1999ZM278.05 58.9999C278.55 59.4999 278.95 59.9999 279.35 60.2999C279.55 60.4999 279.75 60.6999 279.95 60.8999L274.45 64.3999L273.25 61.6999L278.05 58.9999ZM278.35 57.9999C277.75 57.2999 277.25 56.6999 276.65 55.8999L278.65 54.7999L280.15 56.8999L278.35 57.9999ZM291.05 38.2999L292.75 40.4999L289.75 43.4999L288.15 41.2999L291.05 38.2999ZM290.45 37.5999L287.65 40.4999L284.25 35.5999L286.55 32.6999L290.45 37.5999ZM281.05 39.5999C281.85 39.6999 283.35 41.6999 284.45 43.7999L282.55 45.7999L279.05 41.2999C279.95 40.2999 280.85 39.5999 281.05 39.5999ZM287.55 41.6999L289.05 43.8999L284.55 48.2999L282.95 46.2999L287.55 41.6999ZM283.75 34.8999L281.25 31.3999L283.35 28.6999L286.05 32.0999L283.75 34.8999ZM280.75 32.0999L283.25 35.5999C282.85 35.9999 282.65 35.9999 282.55 35.9999H282.45C282.15 36.0999 282.05 36.1999 281.95 36.2999C281.95 36.3999 281.85 36.3999 281.85 36.3999C281.75 36.3999 281.65 36.3999 281.35 36.1999C280.95 35.8999 280.55 35.4999 280.55 35.1999V34.8999L279.95 35.0999V35.2999C280.05 35.7999 280.45 36.3999 281.05 36.5999C281.45 36.8999 281.85 36.9999 282.15 36.8999C282.35 36.7999 282.45 36.6999 282.55 36.5999C282.55 36.4999 282.55 36.4999 282.65 36.4999C282.95 36.4999 283.15 36.3999 283.65 35.9999L287.05 40.8999L285.05 42.9999C284.15 41.5999 282.35 38.6999 281.05 38.5999H280.95C280.15 38.5999 279.25 39.5999 278.35 40.4999L276.15 37.6999L280.75 32.0999ZM275.35 45.0999L275.45 45.2999L278.55 41.8999L282.05 46.2999L279.25 49.1999L279.15 48.9999L273.95 52.1999C273.65 51.7999 273.45 51.3999 273.15 51.0999L272.65 50.3999C271.95 49.2999 271.25 48.1999 270.65 47.0999L270.55 46.9999L275.35 45.0999ZM280.95 51.9999L275.75 54.8999C275.35 54.2999 274.85 53.6999 274.35 52.7999L279.15 49.8999L279.45 50.2999L282.55 47.0999L284.05 49.0999L281.15 51.8999L280.35 50.7999L280.95 51.9999ZM279.05 65.5999L277.55 63.2999L280.45 61.4999C280.95 61.9999 281.45 62.4999 281.85 62.8999C282.15 63.1999 282.45 63.4999 282.75 63.7999L279.05 65.5999ZM292.05 52.7999L287.35 47.6999L289.95 45.0999L293.65 51.2999L292.05 52.7999ZM292.05 47.2999L290.45 44.5999L293.65 41.4999C294.65 42.3999 295.45 43.3999 296.35 44.5999L292.05 47.2999Z" fill="#536BA1"></path><path d="M148.85 376.2C144.15 381 139.05 385.5 133.95 389.8C128.85 394.1 123.95 398.6 118.55 402.5C117.35 403.5 115.95 401.4 116.95 400.4C121.55 395.5 126.95 391.3 131.85 386.8C136.75 382.3 141.95 378 147.25 374.1C148.45 373.1 149.85 375.1 148.85 376.2Z" fill="#536BA1"></path><path d="M105.45 308.5C71.7501 320.7 62.6501 319.8 46.9501 324C46.2501 324.2 45.8501 325 46.1501 325.6C46.3501 326.1 46.8501 326.5 47.2501 326.5C57.3501 326.8 67.9501 324.2 77.6501 321.6C87.6501 319 97.2501 315.6 106.55 311.2C108.15 310.5 107.05 307.9 105.45 308.5Z" fill="#536BA1"></path><path d="M114.05 244.5C99.85 236.1 77.75 227.9 71.65 225.4C70.45 224.9 69.45 226.9 70.55 227.6C76.35 230.5 97.55 241.9 112.75 246.9C113.45 247.1 114.15 246.7 114.35 245.9C114.65 245.4 114.45 244.8 114.05 244.5Z" fill="#536BA1"></path><path d="M163.55 264.8C164.05 263 161.35 262.2 160.45 263.7C157.25 270 155.55 276.9 155.55 284C155.25 290.6 155.65 298.5 159.05 304.3C159.85 305.5 161.95 304.8 161.65 303.4C160.05 297.1 159.45 290.6 159.75 284.1C160.35 277.5 161.65 271 163.55 264.8Z" fill="#536BA1"></path><path d="M173.85 239.6C169.45 243.3 166.15 248.3 164.65 253.9C164.35 254.8 164.95 255.7 165.75 256C166.55 256.2 167.35 255.8 167.75 255C169.75 250.4 172.35 246 175.55 242C177.05 240.3 175.15 238.8 173.85 239.6Z" fill="#536BA1"></path><path d="M171.35 350C152.25 334 141.55 310.3 142.15 285.5C142.95 260.3 154.95 236.8 174.95 221.4C175.55 220.9 175.65 220 175.15 219.4C174.65 218.8 173.95 218.7 173.25 219.1C150.85 235.2 137.65 261.1 137.95 288.8C138.35 319.9 153.85 342.9 178.05 360.3C191.35 369.9 206.55 380 210.05 397.3C210.35 398.8 212.75 398.7 212.55 397.1C210.35 374.4 186.75 362.9 171.35 350Z" fill="#536BA1"></path><path d="M362.15 260.8C361.45 259.5 359.05 260.5 359.65 261.9C366.75 279.1 366.45 298.6 358.55 315.5C348.95 335.8 331.15 343.3 317.45 359.2C310.55 367.1 304.95 377.2 305.85 388.1C305.85 388.8 306.45 389.3 307.15 389.3C307.85 389.3 308.35 388.7 308.35 388C309.05 375.1 316.05 365.4 324.75 357C338.45 343.7 353.25 335.5 361.85 317.1C370.65 299.4 370.65 278.7 362.15 260.8Z" fill="#536BA1"></path><path d="M375.65 378.8C368.85 374.5 361.85 370.7 354.55 367.3C353.15 366.7 352.45 368.7 353.45 369.6C359.85 374.4 366.65 378.7 373.65 382.5C380.55 386.6 387.35 390.8 394.55 394.4C395.35 394.9 396.35 394.6 396.85 393.8C397.35 393 397.05 392.1 396.35 391.6C389.75 387.1 382.75 383 375.65 378.8Z" fill="#536BA1"></path><path d="M450.55 295.1C442.35 294.2 434.05 294 425.85 294C417.55 293.9 409.05 293.8 400.75 294C399.35 294 399.25 296.5 400.65 296.6C408.85 297.2 417.15 297.5 425.35 297.7C433.65 298.2 442.15 298.2 450.45 297.7C451.25 297.6 451.65 296.9 451.55 296.2C451.55 295.6 451.15 295.2 450.55 295.1Z" fill="#536BA1"></path><path d="M406.95 227.9C413.95 226 420.75 223.5 427.25 220.4C433.85 217.5 440.15 213.9 446.15 209.7C447.55 208.6 445.95 206.3 444.35 207.1C437.95 210.1 431.85 213.7 425.45 216.8C419.35 219.7 412.45 223.1 406.25 225.6C405.65 225.9 405.45 226.7 405.75 227.2C405.95 227.8 406.45 228 406.95 227.9Z" fill="#536BA1"></path><path d="M312.75 161.9C294.15 147.9 278.75 142.3 255.85 137.4C254.55 137.1 254.85 135.1 256.25 135.1C264.85 135.6 273.25 137.3 281.35 140.4C275.75 127.6 264.75 118.3 255.55 116.1C245.25 120.4 230.15 132.8 225.65 138.2C231.35 155.1 214.15 169.2 193.75 161C181.65 166 170.45 172.9 160.75 181.6C169.45 185.5 178.45 200.8 181.25 213.8C193.65 209.2 207.85 204.2 221.25 205.7C234.65 207 276.25 227.8 294.55 231.9C285.65 217.5 292.25 183.6 312.75 161.9Z" fill="#E1424C"></path><path d="M205.85 402.8C220.15 423.5 212.55 454.3 229.05 474.3C247.85 497.2 286.55 487.9 297.65 466.4C308.65 444.9 301.35 429.8 311.65 394.7C278.95 413.9 227.45 410.2 205.85 402.8ZM291.15 454.3C285.25 461.9 275.65 466.9 266.65 469.9C257.35 473.2 247.45 473.9 237.85 472.1C237.15 471.9 236.85 471.2 237.05 470.6C237.25 470.1 237.65 469.7 238.15 469.7C247.45 470.3 256.85 469 265.65 465.9C274.45 462.9 282.55 458.2 289.55 452.2C290.75 451.2 291.95 453.3 291.15 454.3ZM294.85 434.5C288.35 442.8 279.25 448.7 268.95 451.2C261.75 453.2 240.35 456.4 232.65 454.2C231.45 453.8 231.55 451.9 232.65 451.9C244.25 451.7 255.75 450.2 266.95 447.4C276.65 444.8 285.45 439.8 292.65 432.8C293.85 431.7 295.85 433.2 294.85 434.5ZM296.65 415.2C289.55 422.8 275.05 429 265.05 431.7C253.45 434.9 241.35 435.5 229.45 433.5C227.85 433.2 228.35 430.9 229.95 431.1C241.45 432.1 253.05 431.1 264.25 428C277.45 424.3 284.45 420 295.05 413.4C296.15 412.6 297.75 414.1 296.65 415.2Z" fill="#2D3C5B"></path><path d="M290.55 263.8C281.55 260 277.55 263.3 275.15 272C270.65 288.4 267.95 305.1 267.25 322.1C257.45 323.8 247.65 324.2 237.75 323.3C235.75 314.5 229.15 286.1 224.15 279C221.65 275 216.35 273.7 212.35 276.2C211.95 276.5 211.55 276.8 211.25 277.1C206.45 280.7 198.55 295.1 195.85 301C191.95 309.5 194.25 313.9 202.35 317.7C212.55 322.3 223.55 325.4 234.65 326.7C240.25 352.6 241.55 369.2 243.55 395.1C243.65 395.8 244.25 396.2 244.85 396.1C245.45 396 245.85 395.6 245.85 395C246.45 373.1 243.05 348.4 238.55 327.1C248.05 327.9 257.65 327.5 267.05 326C266.45 347.1 268.75 368 274.05 388.4C274.65 390.5 277.85 389.5 277.35 387.4C272.35 367.1 270.05 346.2 270.65 325.4C282.75 323 304.25 315.7 312.35 305.7C324.25 291 307.45 270.8 290.55 263.8ZM207.15 315.9C197.75 312.1 194.75 310.7 200.05 300.6C202.85 295.1 208.15 285.1 212.45 281C214.75 278.7 217.95 277.6 220.35 280.2C224.75 285 232.15 315.7 233.75 322.8C224.55 321.7 215.65 319.4 207.15 315.9ZM309.75 303C302.95 312.1 282.05 319 270.95 321.3C271.65 307.4 274.45 284 279.45 270.4C280.95 266.1 283.25 265.3 287.55 266.7C296.65 269.7 307.25 278.9 311.15 287.4C313.75 292.5 313.15 298.5 309.75 303Z" fill="#2D3C5B"></path><path d="M223.65 104.7C222.25 100.3 218.55 95.5001 213.55 97.3001C208.95 99.0001 208.35 104.2 209.45 108.5C207.85 108.3 206.25 108.9 205.15 110C203.05 105.7 198.15 102 193.35 104.6C189.35 106.9 189.15 112.9 190.25 116.9C188.35 117.7 186.05 118 184.05 118.8C183.45 119.1 183.25 119.8 183.55 120.3C183.75 120.8 184.25 121 184.65 121C186.65 120.6 189.05 119.9 191.05 119.4C193.15 124 197.45 128.4 202.95 125.6C208.45 122.8 207.85 117.5 206.15 112.6C207.15 111.3 208.75 110.7 210.25 111.1C211.85 115.2 215.85 120.8 220.95 118.3C226.05 115.8 225.05 109 223.65 104.7ZM202.05 123.3C194.35 127.3 188.85 110.8 194.45 107C198.35 104.4 202.25 109.5 203.45 112.7C204.85 116.3 206.15 121.1 202.05 123.3ZM219.95 116C215.65 117.8 213.35 112.7 212.05 109.6C210.75 106.3 210.35 101 214.35 99.6001C218.25 98.3001 220.65 103.2 221.65 106.2C222.55 109.3 223.25 114.7 219.95 116Z" fill="#2D3C5B"></path><path d="M198.95 120.3C196.95 122 194.65 117.4 196.55 116.2C198.25 115.2 200.65 118.8 198.95 120.3Z" fill="#2D3C5B"></path><path d="M218.05 110.9C218.35 111.8 218.05 112.8 217.35 113.5C216.35 114.2 215.25 113 214.95 112.1C214.55 111 214.65 109.6 215.45 109.1C216.75 108.3 217.85 110 218.05 110.9Z" fill="#2D3C5B"></path><path d="M213.15 122.9C213.85 122.3 214.05 121.8 213.45 121.1C212.35 120 211.15 118.9 209.85 118C208.75 117.2 209.95 115.5 210.95 116.1C212.15 116.8 213.35 117.6 214.35 118.6C217.05 121.2 216.75 123.6 213.65 125.7C212.45 126.7 210.95 127.2 209.45 127.3C208.75 127.2 208.35 126.5 208.45 125.9C208.55 125.6 208.65 125.3 208.95 125.1C209.95 124.4 211.75 124.2 213.15 122.9Z" fill="#2D3C5B"></path><path d="M204.35 132.7C206.45 132.9 208.55 132.5 210.35 131.5C211.75 130.7 212.55 132.6 211.45 133.3C209.25 134.6 206.65 135.3 204.05 135.1C201.45 135.1 198.95 134.2 196.95 132.7C195.95 131.9 196.95 130 198.05 130.7C200.15 131.9 202.25 132.6 204.35 132.7Z" fill="#2D3C5B"></path><path d="M199.25 142.5C205.85 143.2 213.45 143.9 218.95 139.5C225.75 134.1 223.15 127.1 220.65 121.6C219.95 120.1 222.05 119.5 222.65 120.6C226.05 127.6 227.55 135.3 220.85 140.9C214.65 146.1 206.25 145.6 198.85 144.5C197.65 144.6 197.95 142.4 199.25 142.5Z" fill="#2D3C5B"></path><path d="M175.05 140.2C162.95 154.8 156.05 169.2 156.95 188.5C157.05 189.2 156.55 189.7 155.85 189.7C155.25 189.8 154.75 189.3 154.65 188.7C152.15 170.4 161.25 151.7 172.95 138.3C173.95 137.3 176.05 138.9 175.05 140.2Z" fill="#2D3C5B"></path><path d="M176.15 213.1C167.45 217.3 158.25 220.2 148.65 221.8C108.15 227.7 120.15 183.6 132.75 163.3C139.45 152.6 147.05 142.4 155.45 133C151.85 123.2 151.55 112.5 154.55 102.6C155.05 101 157.65 100.5 157.05 103.5C154.55 112.7 154.85 122.5 157.75 131.6C158.35 132.9 158.05 134.5 156.95 135.6C146.55 146.2 137.85 158.5 131.15 171.8C121.35 192.2 115.45 224.5 149.35 218.9C158.85 217.4 166.05 213.9 174.95 211.1C176.25 210.7 177.35 212.4 176.15 213.1Z" fill="#2D3C5B"></path><path d="M390.15 250.6C392.55 255.9 400.85 272.1 400.85 276.8C400.85 283.1 394.85 286.9 389.75 281.9C383.65 276 380.95 269.3 372.95 262.8C368.05 258.8 361.55 255.8 358.15 250.5C355.45 246.7 354.85 241.7 356.75 237.4C357.35 236 359.75 236.6 359.35 238.2C358.25 241.9 358.95 246 361.05 249.2C363.85 253 370.85 256.6 374.85 259.9C382.95 266.6 385.15 271.7 391.45 278.7C394.55 282.1 397.45 280.7 397.45 276.7C397.45 271.6 382.15 245 380.35 237.4C379.95 235.9 382.25 233.9 383.15 236.3C385.15 241.8 388.05 246 390.15 250.6Z" fill="#2D3C5B"></path><path d="M456.05 119.7C455.25 127.7 446.95 159.8 445.05 165.9C441.55 177.2 430.65 176 421.95 171.9C420.45 171.1 421.35 168.7 423.05 169.1C429.55 170.8 438.85 173.5 441.45 164.8C444.15 155.9 452.55 127.5 452.75 119.6C452.85 117.2 451.35 116.3 449.35 117.8C443.15 122.7 434.55 137.9 430.25 145C429.55 146.1 427.45 145.5 428.05 144.1C430.45 137.5 442.05 118.3 448.15 114.7C450.45 113.2 453.75 113.7 455.25 116.1C455.95 117.1 456.25 118.4 456.05 119.7Z" fill="#2D3C5B"></path><path d="M352.75 233.8C353.75 225.6 354.15 217.2 354.15 208.8C360.95 192.2 366.65 175.3 371.25 158C378.45 160.2 385.35 163.1 392.05 166.5C391.95 179.9 389.05 226.6 386.55 230.6C378.25 235.1 358.15 234.3 352.75 233.8Z" fill="#2D3C5B"></path><path d="M423.55 140.8C423.35 151.1 415.85 169.6 413.45 174.8C406.55 169.6 383.95 158.5 370.65 154.2C369.75 153.9 368.85 154.4 368.55 155.3C365.05 168.3 361.25 181.3 356.55 194C348.45 215.9 336.05 236 300.15 228.7C279.95 189.3 351.25 113.5 361.95 111.3C375.25 108.6 415.45 134 423.55 140.8Z" fill="#2D3C5B"></path><path d="M222.35 72.5999C220.85 64.8999 214.45 56.6999 204.55 58.9999C192.05 61.9999 169.45 82.5999 168.35 95.0999C164.05 96.0999 160.55 98.0999 159.75 102.7C158.35 110.9 164.75 120.6 170.85 125.5C170.65 131.5 174.65 139.2 181.85 137.5C186.95 144 191.45 150.9 195.45 158.2C196.15 159.4 197.75 158.2 197.45 157C196.15 152.3 187.15 139.7 184.05 136.4C185.45 135.4 186.25 133.7 186.25 132C186.15 130.8 184.15 130.4 183.85 131.8C183.65 134 181.75 135.6 179.55 135.4C178.75 135.3 178.15 135.1 177.55 134.6C174.05 132 172.45 127.5 173.85 123.4C174.65 121.9 176.65 121.2 178.15 122C178.25 122.1 178.45 122.2 178.55 122.3C179.05 122.6 179.65 122.6 180.05 122.1C184.55 116.4 186.35 108.9 185.15 101.7C193.55 101.1 201.75 98.8999 209.15 95.0999C218.15 90.4999 224.85 85.3999 222.35 72.5999ZM213.45 70.5999C212.95 70.5999 212.55 70.2999 212.35 69.8999C208.85 61.9999 196.05 70.9999 189.55 76.7999C189.05 77.1999 188.45 77.1999 187.95 76.6999C187.55 76.1999 187.55 75.5999 187.95 75.1999C191.75 70.7999 196.55 67.2999 201.95 65.0999C206.55 63.1999 214.25 62.8999 214.85 69.2999C214.85 70.0999 214.25 70.6999 213.45 70.5999Z" fill="#2D3C5B"></path><path d="M304.55 18.1C304.35 16.8 303.75 15.5 303.05 14.5C302.95 14.4 301.45 12.8 301.15 12.5C299.25 11.2 296.55 12.2 294.35 12.8C288.45 14.4 283.55 15.9 277.15 18.2C275.05 19 273.45 19.3 272.15 20.4C270.85 21.6 269.95 23.2 269.65 24.9C268.75 29 268.35 33.4 267.75 37.7C266.65 46 265.95 54.4 265.75 62.8C265.65 65.8 265.35 68.7 266.55 70.7C266.65 71 266.75 71.3 266.95 71.6C268.05 73.6 269.45 74.8 272.85 74.9C274.15 74.9 275.65 74.7 276.85 74.4C277.75 74.3 278.55 74.1 279.45 73.9C279.25 73 279.15 72.2 278.95 71.3C277.25 71.6 275.55 71.9 273.85 72.2C271.75 72.5 269.35 72.7 267.75 71.2C266.25 69.8 266.15 67.5 266.25 65.5C266.75 46.2 268.25 38.5 269.55 29.3C269.65 29.2 269.75 25.9 270.85 23.4C271.55 21.8 272.85 20.4 274.55 19.9C283.75 16.5 288.45 15.3 295.85 13.2C297.55 12.7 299.65 12.2 301.15 13.5C302.45 14.6 302.35 16.8 302.25 18.6C301.35 25.9 298.85 46.7 298.75 49.8C298.55 53.2 298.45 56.7 297.95 60C298.15 60.3 298.45 60.5 298.85 60.6C299.25 60.7 299.95 60.1 300.15 59.9C300.25 59.1 300.35 58.3 300.35 57.5C301.25 46 300.15 54.8 304.45 22.7C304.65 21 304.75 19.5 304.55 18.1Z" fill="#2D3C5B"></path><path d="M310.75 51.2C310.85 51.4 311.05 51.5 311.25 51.4C311.45 51.3 311.55 51.1 311.45 50.9C310.35 46.2 308.65 41.7 306.25 37.5C305.95 36.9 305.55 36.4 305.15 36.1C304.95 36 304.55 36.1 304.65 36.4C305.15 38.6 307.45 40.3 310.75 51.2Z" fill="#2D3C5B" stroke="#2D3C5B" stroke-miterlimit="10"></path><path d="M309.95 34.5001C309.75 34.0001 309.55 33.6001 309.25 33.3001C309.15 33.2001 308.85 33.2001 308.75 33.4001C308.65 34.7001 309.25 35.0001 311.45 45.2001C311.55 45.6001 312.15 45.5001 312.15 45.1001C312.05 44.3001 311.95 43.6001 311.85 42.8001C311.45 40.0001 310.75 37.2001 309.95 34.5001Z" fill="#2D3C5B" stroke="#2D3C5B" stroke-miterlimit="10"></path><path d="M294.15 17.5C293.95 17.5 293.75 17.5 293.55 17.5C294.15 17.9 294.65 18.4 295.25 18.6C296.35 19.3 297.45 19.8 298.45 20.2C298.45 20.1 298.45 19.9 298.45 19.8C297.45 19.3 296.45 18.8 295.35 18.2C294.95 18.1 294.45 17.8 294.15 17.5Z" fill="#536BA1"></path><path d="M272.75 54.5C271.35 54.5 270.15 55.6 270.15 57.1C270.15 58.2 271.75 60.9 272.45 62.1C272.55 62.3 272.75 62.3 272.95 62.2L273.05 62.1C273.75 61 275.35 58.3 275.35 57.1C275.35 55.6 274.15 54.5 272.75 54.5ZM272.75 58.1C272.15 58.1 271.65 57.6 271.65 57C271.65 56.4 272.15 55.9 272.75 55.9C273.45 55.9 273.85 56.4 273.85 57C273.95 57.6 273.45 58.1 272.75 58.1Z" fill="#E1424C"></path><path d="M275.65 37.6001C274.25 37.6001 273.05 38.7001 273.05 40.2001C273.05 41.3001 274.65 44.0001 275.35 45.2001C275.45 45.4001 275.65 45.4001 275.85 45.3001L275.95 45.2001C276.65 44.1001 278.25 41.4001 278.25 40.2001C278.25 38.7001 277.05 37.6001 275.65 37.6001ZM275.65 41.2001C275.05 41.2001 274.55 40.7001 274.55 40.1001C274.55 39.4001 275.05 39.0001 275.65 39.0001C276.35 39.0001 276.75 39.5001 276.75 40.1001C276.75 40.8001 276.35 41.2001 275.65 41.2001Z" fill="#E1424C"></path><path d="M289.95 36.3C288.55 36.3 287.35 37.4001 287.35 38.9001C287.35 40.0001 288.95 42.7001 289.65 43.9001C289.75 44.1001 289.95 44.1 290.15 44L290.25 43.9001C290.95 42.8001 292.55 40.1001 292.55 38.9001C292.55 37.4001 291.45 36.3 289.95 36.3ZM289.95 40C289.35 40 288.85 39.5001 288.85 38.9001C288.85 38.2001 289.35 37.8 289.95 37.8C290.65 37.8 291.05 38.3001 291.05 38.9001C291.15 39.5001 290.65 40 289.95 40Z" fill="#E1424C"></path><path d="M283.35 20.8C281.95 20.8 280.75 21.9 280.75 23.4C280.75 24.5 282.35 27.2 283.05 28.4C283.15 28.6 283.35 28.6 283.55 28.5L283.65 28.4C284.35 27.3 285.95 24.6 285.95 23.4C285.85 21.9 284.85 20.8 283.35 20.8ZM283.35 24.4C282.75 24.4 282.25 23.9 282.25 23.3C282.25 22.6 282.75 22.2001 283.35 22.2001C283.95 22.2001 284.45 22.7 284.45 23.3C284.55 23.9 283.95 24.4 283.35 24.4Z" fill="#E1424C"></path><path d="M261.45 114.8C261.05 114.8 260.55 114.5 260.45 114.1C260.25 113.5 260.55 113 261.05 112.8C261.15 112.8 266.95 110.4 272.55 104.2C277.65 98.5 283.25 88.1 281.85 71.6C281.65 69.7 282.15 67.1 282.65 64.7C283.05 62.8 283.35 61 283.35 59.8C283.25 58.1 282.55 55.9 282.15 54.6C280.55 51.7 281.35 49.7 282.65 48.9C284.15 47.8 286.25 48.3 287.65 50C288.75 51.3 289.45 52.4 293.15 62.6C293.55 63.7 296.25 64.9 298.45 64.2C301.35 63.3 302.15 60.1 301.05 54.9C300.95 54.3 301.25 53.8 301.85 53.7C302.45 53.6 302.95 53.9 303.05 54.5C305.15 63.5 300.95 65.7 299.05 66.3C295.85 67.3 292.05 65.8 291.15 63.4C287.45 53.1 286.85 52.4 285.95 51.3C285.15 50.4 284.35 50.2 283.75 50.6C283.05 51.1 283.15 52.2 283.95 53.7L284.05 53.9C284.65 55.5 285.35 57.9 285.45 59.8C285.55 61.2 285.15 63.2 284.75 65.2C284.35 67.5 283.85 69.9 284.05 71.6C287.05 104.9 262.25 115 262.05 115.1C261.75 114.8 261.65 114.8 261.45 114.8Z" fill="#2D3C5B"></path><path d="M280.65 133.9C280.25 133.9 279.85 133.7 279.65 133.3C279.35 132.8 279.55 132.2 280.15 131.9C300.35 121.7 301.95 96.1 301.95 88.5C301.55 71.9 301.45 71.6 307.55 65.3L308.15 64.7C312.25 60.4 309.75 55.3 309.65 55.1L302.65 42.8C302.35 42.3 302.55 41.7 303.05 41.4C303.55 41.1 304.15 41.3 304.45 41.8L311.45 54.2C311.55 54.3 314.85 60.8 309.65 66.3L309.05 66.9C303.65 72.5 303.65 72.5 304.05 88.5C304.05 96.4 302.45 123 281.05 133.8C280.85 133.9 280.75 133.9 280.65 133.9Z" fill="#2D3C5B"></path></svg> 