<svg width="121" height="119" viewBox="0 0 121 119" fill="none" xmlns="http://www.w3.org/2000/svg">
<mask id="mask0_1325_1158" style="mask-type:luminance" maskUnits="userSpaceOnUse" x="0" y="0" width="121" height="119">
<path d="M120.033 0H0V118.535H120.033V0Z" fill="white"/>
</mask>
<g mask="url(#mask0_1325_1158)">
<path d="M83.5305 30.6251L59.3152 30.7266L51.923 7.7262L44.5309 30.7266L20.3153 30.6251L39.9683 44.7558L32.3976 67.6801L51.923 53.4222L71.4739 67.6801L63.9032 44.7558L83.5305 30.6251Z" fill="#FEBF43"/>
<path d="M49.9098 82.522L73.3861 80.4888L49.9098 86.5629V82.522Z" fill="#99644C"/>
<path d="M13.1789 73.5249L26.0513 89.2569C29.5434 93.5265 34.9218 95.8646 40.4533 95.509L61.559 94.111L70.251 81.2767L39.9179 87.5542L24.4454 73.1693C21.82 70.4498 17.92 69.3569 14.275 70.3229C12.7966 70.6531 12.2359 72.3814 13.1789 73.5249Z" fill="#99644C"/>
<path d="M26.6887 73.3981L33.9023 85.6225L40.0708 89.9939L73.3865 81.9881L50.42 85.4701L42.6454 82.2424L35.3807 73.7539C33.4945 71.5426 30.5377 70.5516 27.6828 71.1615C26.6631 71.3648 26.1534 72.5084 26.6887 73.3981Z" fill="#99644C"/>
<path d="M39.5359 77.3121L44.8889 86.5632L51.4143 85.3178L48.4321 79.7011C46.8516 77.0578 43.2066 75.6094 40.1477 76.0668C39.5616 76.143 39.2301 76.8038 39.5359 77.3121Z" fill="#99644C"/>
<path d="M120.033 118.535H85.3157L84.653 106.132C84.5256 103.591 82.6903 101.481 80.2177 100.948L70.2512 98.813L38.0827 100.16C36.8337 100.287 35.5847 99.9312 34.5906 99.1689L10.9614 80.4126C10.5279 80.0568 10.2986 79.5738 10.2986 79.0655C10.2986 78.5319 10.5536 77.9727 11.0633 77.6424C12.3377 76.7783 13.7653 76.2446 15.2181 75.9904C17.7926 75.5583 20.4946 76.0666 22.7633 77.5662L33.1376 84.3264L38.516 87.8336L39.8926 87.5287H39.9436L44.8377 86.4867L49.9357 85.3939L50.1396 85.343L51.2866 85.089L70.0727 81.0734C70.4041 80.9972 70.6589 80.87 70.8885 80.6922C71.8061 79.955 71.9079 78.4556 70.8628 77.6424L53.8357 64.2995C52.6631 63.41 52.0513 62.0885 52.0513 60.7414C52.0513 59.6994 52.4081 58.6575 53.1474 57.8187C54.4473 56.3193 56.5631 55.8363 58.3983 56.6496L83.6079 67.8321L92.4274 69.7638C102.7 72.0257 110.755 79.9297 113.227 90.1211L120.033 118.535Z" fill="#C68881"/>
<path d="M64.7749 7.4699L72.2729 14.9458L79.771 7.4699L72.2729 -0.00598145L64.7749 7.4699Z" fill="#FEBF43"/>
<path d="M64.7705 7.47192H72.2647V14.9439L64.7705 7.47192Z" fill="#FFE1A8"/>
<path d="M7.49325 53.6399L14.9912 46.1638L7.49325 38.688L-0.00469971 46.1638L7.49325 53.6399Z" fill="#8EA3AD"/>
<path d="M0 46.1534H7.49399V38.6815L0 46.1534Z" fill="#CCDFE5"/>
<path d="M96.0501 47.3912L88.5519 54.8673L96.0498 62.3432L103.548 54.8673L96.0501 47.3912Z" fill="black"/>
<path d="M103.541 54.8708H96.0466V62.343L103.541 54.8708Z" fill="#4E545B"/>
</g>
</svg>
